SRRun01_grf
version=1
nRows=12
nColumns=19
inDegrees=no
endheader
time	ground_force_r_vx	ground_force_r_vy	ground_force_r_vz	ground_force_r_px	ground_force_r_py	ground_force_r_pz	ground_force_r_mx	ground_force_r_my	ground_force_r_mz	ground_force_l_vx	ground_force_l_vy	ground_force_l_vz	ground_force_l_px	ground_force_l_py	ground_force_l_pz	ground_force_l_mx	ground_force_l_my	ground_force_l_mz
    139.99600000	      0.00000000	      0.00000000	      0.00000000	      0.00000000	      0.00000000	      0.00000000	      0.00000000	      0.00000000	      0.00000000	      0.00000000	      0.00000000	      0.00000000	      0.00000000	      0.00000000	      0.00000000	      0.00000000	      0.00000000	      0.00000000
    139.99700000	     60.31005820	     44.83426515	     -2.13191415	      1.04135060	      0.00000000	     -0.92164503	      0.00000325	     15.81729345	      0.00000453	      0.00000000	      0.00000000	      0.00000000	      0.00000000	      0.00000000	      0.00000000	      0.00000000	      0.00000000	      0.00000000
    139.99800000	     48.42636222	     73.32012680	     10.90221579	      1.02015060	      0.00000000	     -0.94683085	      0.00000434	     12.06714706	      0.00000496	      0.00000000	      0.00000000	      0.00000000	      0.00000000	      0.00000000	      0.00000000	      0.00000000	      0.00000000	      0.00000000
    139.99900000	     35.20780938	    102.51234283	     24.85883265	      0.99924163	      0.00000000	     -0.97000026	      0.00000562	      8.50647677	      0.00000542	      0.00000000	      0.00000000	      0.00000000	      0.00000000	      0.00000000	      0.00000000	      0.00000000	      0.00000000	      0.00000000
    140.00000000	     20.53204507	    132.01154695	     39.80728886	      0.97922394	      0.00000000	     -0.99027191	      0.00000702	      5.26596224	      0.00000594	      0.00000000	      0.00000000	      0.00000000	      0.00000000	      0.00000000	      0.00000000	      0.00000000	      0.00000000	      0.00000000
    140.00100000	      4.37918026	    161.39078255	     55.84363516	      0.96062303	      0.00000000	     -1.00696997	      0.00000848	      2.45177052	      0.00000656	      0.00000000	      0.00000000	      0.00000000	      0.00000000	      0.00000000	      0.00000000	      0.00000000	      0.00000000	      0.00000000
    140.00200000	    -13.13561189	    190.20065290	     73.06037617	      0.94386060	      0.00000000	     -1.01968205	      0.00000992	      0.13735895	      0.00000728	      0.00000000	      0.00000000	      0.00000000	      0.00000000	      0.00000000	      0.00000000	      0.00000000	      0.00000000	      0.00000000
    140.00300000	    -31.74137885	    217.98015688	     91.50437574	      0.92923895	      0.00000000	     -1.02829258	      0.00001129	     -1.64130451	      0.00000812	      0.00000000	      0.00000000	      0.00000000	      0.00000000	      0.00000000	      0.00000000	      0.00000000	      0.00000000	      0.00000000
    140.00400000	    -51.00621595	    244.27474301	    111.12746890	      0.91693719	      0.00000000	     -1.03298709	      0.00001255	     -2.88651346	      0.00000906	      0.00000000	      0.00000000	      0.00000000	      0.00000000	      0.00000000	      0.00000000	      0.00000000	      0.00000000	      0.00000000
    140.00500000	    -70.34938205	    268.66171073	    131.73680934	      0.90701637	      0.00000000	     -1.03422548	      0.00001369	     -3.63554126	      0.00001008	      0.00000000	      0.00000000	      0.00000000	      0.00000000	      0.00000000	      0.00000000	      0.00000000	      0.00000000	      0.00000000
    140.00600000	    -89.07028297	    290.78133559	    152.95368541	      0.89943068	      0.00000000	     -1.03268605	      0.00001468	     -3.95382167	      0.00001116	      0.00000000	      0.00000000	      0.00000000	      0.00000000	      0.00000000	      0.00000000	      0.00000000	      0.00000000	      0.00000000
    140.00700000	   -106.39188493	    310.37039734	    174.18989718	      0.89404264	      0.00000000	     -1.02918635	      0.00001555	     -3.92550977	      0.00001226	      0.00000000	      0.00000000	      0.00000000	      0.00000000	      0.00000000	      0.00000000	      0.00000000	      0.00000000	      0.00000000
